<svg width="137" height="136" viewBox="0 0 137 136" fill="none" xmlns="http://www.w3.org/2000/svg">
<path d="M136.333 74.8001C136.333 108.528 108.861 136 75.1331 136C41.4051 136 13.9331 108.528 13.9331 74.8001C13.9331 41.0721 41.4051 13.6001 75.1331 13.6001C108.861 13.6001 136.333 41.0721 136.333 74.8001Z" fill="#FFAE35"/>
<path d="M75.1331 136C41.3888 136 13.9331 108.548 13.9331 74.8001C13.9331 41.0558 41.3888 13.6001 75.1331 13.6001C108.877 13.6001 136.333 41.0558 136.333 74.8001C136.333 108.548 108.877 136 75.1331 136ZM75.1331 27.2001C48.8858 27.2001 27.5331 48.5528 27.5331 74.8001C27.5331 101.044 48.8858 122.4 75.1331 122.4C101.38 122.4 122.733 101.044 122.733 74.8001C122.733 48.5528 101.38 27.2001 75.1331 27.2001Z" fill="#F64032"/>
<path d="M75.1333 108.8C56.3871 108.8 41.1333 93.5465 41.1333 74.8003C41.1333 56.0541 56.3871 40.8003 75.1333 40.8003C93.8795 40.8003 109.133 56.0541 109.133 74.8003C109.133 93.5465 93.8795 108.8 75.1333 108.8ZM75.1333 54.4003C63.8841 54.4003 54.7333 63.5511 54.7333 74.8003C54.7333 86.0495 63.8841 95.2003 75.1333 95.2003C86.3825 95.2003 95.5333 86.0495 95.5333 74.8003C95.5333 63.5511 86.3825 54.4003 75.1333 54.4003Z" fill="#1777BA"/>
<path d="M79.9406 69.9924L34.333 24.3841V6.8C34.333 3.04504 31.288 0 27.533 0C23.778 0 20.733 3.04504 20.733 6.8V20.4H7.13301C3.37805 20.4 0.333008 23.445 0.333008 27.2C0.333008 30.955 3.37805 34 7.13301 34H24.7171L70.3247 79.6076C71.6534 80.9356 73.3929 81.6 75.133 81.6C76.8731 81.6 78.6126 80.9356 79.9406 79.6076C82.5974 76.9515 82.5974 72.6485 79.9406 69.9924Z" fill="#35B36E"/>
</svg>
