<svg width="137" height="136" viewBox="0 0 137 136" fill="none" xmlns="http://www.w3.org/2000/svg">
<path d="M68.667 136C31.1733 136 0.666992 105.497 0.666992 68C0.666992 30.5063 31.1733 0 68.667 0C106.161 0 136.667 30.5063 136.667 68C136.667 105.497 106.161 136 68.667 136ZM68.667 15.1111C39.5033 15.1111 15.7781 38.8363 15.7781 68C15.7781 97.1599 39.5033 120.889 68.667 120.889C97.8307 120.889 121.556 97.1599 121.556 68C121.556 38.8363 97.8307 15.1111 68.667 15.1111Z" fill="#FFAE35"/>
<rect x="48" y="41" width="13" height="54" rx="6.5" fill="#FFAE35"/>
<rect x="77" y="41" width="13" height="54" rx="6.5" fill="#FFAE35"/>
</svg>
