<svg width="150" height="150" viewBox="0 0 150 150" fill="none" xmlns="http://www.w3.org/2000/svg">
<g clip-path="url(#clip0_2486_837)">
<path d="M74.5799 150C40.0747 150 12 121.929 12 87.4202C12 52.9151 40.0747 24.8403 74.5799 24.8403C109.085 24.8403 137.16 52.9151 137.16 87.4202C137.16 121.929 109.085 150 74.5799 150ZM74.5799 38.747C47.7408 38.747 25.9066 60.5811 25.9066 87.4202C25.9066 114.256 47.7408 136.093 74.5799 136.093C101.419 136.093 123.253 114.256 123.253 87.4202C123.253 60.5811 101.419 38.747 74.5799 38.747Z" fill="#F64032"/>
<path d="M74.5799 38.747C47.7408 38.747 25.9066 60.5811 25.9066 87.4202C25.9066 114.256 47.7408 136.093 74.5799 136.093C101.419 136.093 123.253 114.256 123.253 87.4202C123.253 60.5811 101.419 38.747 74.5799 38.747Z" fill="#F64032"/>
<path fill-rule="evenodd" clip-rule="evenodd" d="M103.73 6.01843C100.632 4.87139 97.1902 6.45312 96.0431 9.55131L91.4289 22.0146L79.6156 18.4915C76.5174 17.3444 67.3116 15.9417 66.1645 19.0399C65.0175 22.1381 72.8372 26.7763 75.9354 27.9233L87.2751 33.2341L84.0599 45.3497C82.9129 48.4479 81.7053 55.992 84.8035 57.1391C87.9017 58.2861 91.9748 51.8029 93.1219 48.7047L98.4946 37.3879L111.32 41.0237C114.418 42.1708 122.916 43.5753 124.063 40.4771C125.21 37.3789 117.933 32.6775 114.835 31.5305L102.648 26.1684L107.263 13.7051C108.41 10.6069 106.828 7.16547 103.73 6.01843ZM102.648 26.1684L91.4289 22.0146L87.2751 33.2341L98.4946 37.3879L102.648 26.1684Z" fill="#35B36E"/>
<path d="M102.648 26.1684L91.4289 22.0146L87.2751 33.2341L98.4946 37.3879L102.648 26.1684Z" fill="#35B36E"/>
</g>
<defs>
<clipPath id="clip0_2486_837">
<rect width="150" height="150" fill="white"/>
</clipPath>
</defs>
</svg>
