<svg width="136" height="136" viewBox="0 0 136 136" fill="none" xmlns="http://www.w3.org/2000/svg">
<path d="M67.9998 136C30.5061 136 -0.000244141 105.497 -0.000244141 68C-0.000244141 30.5063 30.5061 0 67.9998 0C105.493 0 136 30.5063 136 68C136 105.497 105.493 136 67.9998 136ZM67.9998 15.1111C38.8361 15.1111 15.1109 38.8363 15.1109 68C15.1109 97.1599 38.8361 120.889 67.9998 120.889C97.1634 120.889 120.889 97.1599 120.889 68C120.889 38.8363 97.1634 15.1111 67.9998 15.1111Z" fill="#F64032"/>
<path fill-rule="evenodd" clip-rule="evenodd" d="M48.9038 48.9038C46.3654 51.4422 46.3654 55.5578 48.9038 58.0962L59.1152 68.3076L49.5276 77.8952C46.9892 80.4336 46.9892 84.5492 49.5276 87.0876C52.066 89.626 56.1816 89.626 58.72 87.0876L68.3076 77.5L77.8952 87.0876C80.4336 89.626 84.5492 89.626 87.0876 87.0876C89.626 84.5492 89.626 80.4336 87.0876 77.8952L77.5 68.3076L87.7113 58.0962C90.2498 55.5578 90.2498 51.4422 87.7113 48.9038C85.1729 46.3654 81.0574 46.3654 78.519 48.9038L68.3076 59.1152L58.0962 48.9038C55.5578 46.3654 51.4422 46.3654 48.9038 48.9038ZM68.3076 59.1152L59.1152 68.3076L68.3076 77.5L77.5 68.3076L68.3076 59.1152Z" fill="#F64032"/>
<path d="M68.3076 59.1152L59.1152 68.3076L68.3076 77.5L77.5 68.3076L68.3076 59.1152Z" fill="#F64032"/>
</svg>
